<?xml version="1.0" standalone="no"?>
<!DOCTYPE svg PUBLIC "-//W3C//DTD SVG 20010904//EN"
 "http://www.w3.org/TR/2001/REC-SVG-20010904/DTD/svg10.dtd">
<svg version="1.0" xmlns="http://www.w3.org/2000/svg"
 width="512.000000pt" height="512.000000pt" viewBox="0 0 512.000000 512.000000"
 preserveAspectRatio="xMidYMid meet">
<metadata>
Created by potrace 1.14, written by Peter Selinger 2001-2017
</metadata>
<g transform="translate(0.000000,512.000000) scale(0.100000,-0.100000)"
fill="#000000" stroke="none">
<path d="M2739 4346 c-106 -37 -313 -189 -466 -343 -265 -267 -450 -610 -567
-1053 -14 -52 -28 -108 -31 -125 -21 -121 -35 -207 -40 -250 -11 -98 -9 -95
-57 -78 -44 16 -215 22 -273 11 -218 -42 -413 -219 -490 -443 -50 -145 -51
-333 -5 -516 99 -386 384 -681 740 -763 103 -24 313 -16 412 16 151 50 292
141 407 264 63 67 147 185 173 244 7 16 15 30 19 30 3 0 13 -17 23 -37 67
-140 235 -323 374 -407 223 -133 493 -164 722 -81 224 80 430 272 549 512 105
211 145 495 96 678 -19 72 -73 191 -111 243 -175 240 -496 336 -748 224 l-49
-22 -24 27 c-40 46 -156 204 -200 273 -124 195 -237 450 -292 660 -13 49 -51
254 -47 257 1 1 38 -33 83 -75 140 -134 347 -219 578 -238 59 -4 75 -2 102 15
35 22 57 79 49 128 -2 15 -8 53 -11 83 -4 30 -18 93 -32 140 -93 322 -291 511
-625 599 -42 11 -107 23 -145 26 -37 4 -70 9 -73 10 -3 2 -21 -2 -41 -9z
m-103 -469 c0 -169 11 -278 38 -407 3 -14 11 -48 16 -77 14 -64 79 -266 115
-352 63 -152 189 -384 258 -474 16 -21 27 -40 24 -43 -3 -3 -23 -7 -44 -9
-167 -14 -338 -113 -446 -257 l-35 -47 -44 56 c-147 191 -406 291 -620 239
l-58 -13 0 25 c0 42 40 261 66 366 70 276 169 507 309 715 76 114 96 139 195
245 61 65 203 186 218 186 4 0 7 -69 8 -153z"/>
</g>
</svg>
